<?xml version="1.0" encoding="UTF-8"?>
<svg id="Layer_1" xmlns="http://www.w3.org/2000/svg" xmlns:xlink="http://www.w3.org/1999/xlink" version="1.1" viewBox="0 0 796.22 160">
  <!-- Generator: Adobe Illustrator 30.3.0, SVG Export Plug-In . SVG Version: 2.1.3 Build 182)  -->
  <defs>
    <style>
      .st0 {
        fill: none;
      }

      .st1 {
        clip-path: url(#clippath-1);
      }

      .st2 {
        clip-path: url(#clippath);
      }
    </style>
    <clipPath id="clippath">
      <rect class="st0" width="160" height="160"/>
    </clipPath>
    <clipPath id="clippath-1">
      <rect class="st0" width="160" height="160"/>
    </clipPath>
  </defs>
  <g>
    <path d="M193.83,109.28c-4.98,0-9.3-1.12-12.96-3.37-3.66-2.24-6.48-5.34-8.46-9.29-1.98-3.95-2.97-8.51-2.97-13.67s1.01-9.77,3.04-13.72,4.87-7.02,8.53-9.22,7.93-3.3,12.82-3.3,9.3,1.12,12.96,3.37c3.66,2.24,6.49,5.33,8.48,9.27,2,3.94,3,8.47,3,13.6s-1.01,9.77-3.02,13.72c-2.01,3.95-4.85,7.04-8.51,9.27-3.66,2.23-7.96,3.34-12.91,3.34h0ZM193.83,100.19c4.76,0,8.32-1.61,10.67-4.82s3.53-7.35,3.53-12.43-1.19-9.35-3.57-12.47-5.92-4.68-10.63-4.68c-3.23,0-5.89.73-7.98,2.19s-3.64,3.47-4.66,6.04c-1.01,2.57-1.52,5.54-1.52,8.92,0,5.23,1.2,9.41,3.6,12.54,2.4,3.14,5.92,4.7,10.56,4.7h0Z"/>
    <path d="M228.36,130.03V58.1h8.58v35.83h1.11v36.1h-9.69ZM251.79,109.28c-4.76,0-8.76-1.16-11.99-3.48s-5.67-5.46-7.33-9.43c-1.66-3.96-2.49-8.44-2.49-13.42s.82-9.45,2.47-13.42c1.64-3.96,4.07-7.09,7.29-9.38,3.21-2.29,7.17-3.44,11.87-3.44s8.71,1.15,12.1,3.44c3.4,2.29,6.02,5.41,7.86,9.36s2.77,8.43,2.77,13.44-.92,9.46-2.74,13.44c-1.83,3.98-4.43,7.12-7.79,9.43-3.37,2.31-7.37,3.46-12.01,3.46h0ZM250.45,100.56c3.07,0,5.62-.78,7.63-2.35,2.01-1.57,3.52-3.68,4.52-6.34s1.5-5.63,1.5-8.92-.5-6.21-1.5-8.85-2.53-4.75-4.59-6.32-4.69-2.35-7.88-2.35c-3.01,0-5.49.74-7.45,2.21-1.95,1.48-3.4,3.54-4.33,6.18-.94,2.64-1.41,5.69-1.41,9.13s.46,6.49,1.38,9.13,2.38,4.72,4.38,6.22c2,1.51,4.58,2.26,7.75,2.26h0Z"/>
    <path d="M306.56,109.28c-4.95,0-9.29-1.08-13.03-3.25s-6.64-5.19-8.71-9.08-3.11-8.4-3.11-13.53c0-5.44,1.02-10.16,3.07-14.15,2.04-4,4.89-7.08,8.55-9.27,3.66-2.18,7.92-3.27,12.77-3.27s9.39,1.18,12.96,3.53c3.57,2.35,6.23,5.69,8,10.03,1.77,4.33,2.47,9.48,2.1,15.45h-9.64v-3.5c-.06-5.78-1.16-10.05-3.3-12.82-2.14-2.77-5.39-4.15-9.75-4.15-4.83,0-8.45,1.52-10.88,4.56s-3.64,7.44-3.64,13.19,1.21,9.71,3.64,12.7,5.93,4.5,10.51,4.5c3.01,0,5.62-.68,7.82-2.05s3.91-3.33,5.14-5.88l9.45,3c-1.94,4.46-4.87,7.91-8.81,10.35s-8.31,3.67-13.14,3.67v-.03ZM288.81,85.72v-7.52h35.55v7.52h-35.55Z"/>
    <path d="M338.05,107.89v-49.8h8.62v14.39h1.15v35.41h-9.77ZM373.05,107.89v-24.48c0-1.94-.16-3.93-.48-5.97s-.94-3.94-1.84-5.69c-.91-1.75-2.18-3.17-3.83-4.24-1.65-1.08-3.79-1.61-6.43-1.61-1.72,0-3.35.28-4.89.85s-2.88,1.48-4.03,2.74c-1.15,1.26-2.06,2.92-2.72,4.98-.66,2.06-.99,4.56-.99,7.52l-5.99-2.26c0-4.52.84-8.51,2.54-11.96,1.69-3.46,4.12-6.16,7.29-8.09,3.17-1.94,6.99-2.9,11.48-2.9,3.44,0,6.33.55,8.67,1.66,2.34,1.11,4.23,2.56,5.69,4.36,1.46,1.8,2.57,3.76,3.34,5.88.77,2.12,1.29,4.2,1.57,6.22.28,2.03.42,3.81.42,5.35v27.66h-9.77l-.03-.02Z"/>
    <path d="M394.76,107.89V41.5h9.68v30.57h-1.11v35.83h-8.58,0ZM418.19,109.28c-4.77,0-8.76-1.16-11.99-3.48-3.23-2.32-5.67-5.46-7.33-9.43-1.66-3.96-2.49-8.44-2.49-13.42s.82-9.45,2.47-13.42c1.64-3.96,4.07-7.09,7.29-9.38,3.21-2.29,7.17-3.44,11.87-3.44s8.71,1.15,12.1,3.44c3.4,2.29,6.02,5.41,7.86,9.36s2.77,8.43,2.77,13.44-.91,9.46-2.74,13.44-4.43,7.12-7.79,9.43c-3.37,2.31-7.37,3.46-12.01,3.46h-.01ZM416.85,100.56c3.07,0,5.62-.78,7.63-2.35s3.52-3.68,4.52-6.34,1.5-5.63,1.5-8.92-.5-6.21-1.5-8.85-2.53-4.75-4.59-6.32-4.69-2.35-7.88-2.35c-3.01,0-5.5.74-7.45,2.21-1.95,1.48-3.4,3.54-4.33,6.18-.94,2.64-1.41,5.69-1.41,9.13s.46,6.49,1.38,9.13,2.38,4.72,4.38,6.22c2,1.51,4.58,2.26,7.75,2.26Z"/>
    <path d="M472.5,109.28c-4.98,0-9.3-1.12-12.96-3.37s-6.48-5.34-8.46-9.29c-1.98-3.95-2.97-8.51-2.97-13.67s1.01-9.77,3.04-13.72,4.87-7.02,8.53-9.22,7.93-3.3,12.82-3.3,9.3,1.12,12.96,3.37c3.66,2.24,6.49,5.33,8.48,9.27,2,3.94,3,8.47,3,13.6s-1.01,9.77-3.02,13.72c-2.01,3.95-4.85,7.04-8.51,9.27-3.66,2.23-7.96,3.34-12.91,3.34h0ZM472.5,100.19c4.76,0,8.32-1.61,10.67-4.82s3.53-7.35,3.53-12.43-1.19-9.35-3.57-12.47-5.92-4.68-10.63-4.68c-3.23,0-5.89.73-7.98,2.19s-3.64,3.47-4.66,6.04c-1.01,2.57-1.52,5.54-1.52,8.92,0,5.23,1.2,9.41,3.6,12.54,2.4,3.14,5.92,4.7,10.56,4.7h0Z"/>
    <path d="M500.16,107.89l18.63-25.17-18.21-24.62h11.43l12.4,17.11,12.26-17.11h11.43l-18.21,24.62,18.67,25.17h-11.48l-12.68-17.66-12.77,17.66h-11.48,0Z"/>
    <path d="M575.73,109.28c-4.98,0-9.3-1.12-12.96-3.37s-6.48-5.34-8.46-9.29c-1.98-3.95-2.97-8.51-2.97-13.67s1.01-9.77,3.04-13.72c2.03-3.95,4.87-7.02,8.53-9.22,3.66-2.2,7.93-3.3,12.82-3.3s9.3,1.12,12.96,3.37c3.66,2.24,6.49,5.33,8.48,9.27,2,3.94,3,8.47,3,13.6s-1.01,9.77-3.02,13.72c-2.01,3.95-4.85,7.04-8.51,9.27-3.66,2.23-7.96,3.34-12.91,3.34h0ZM575.73,100.19c4.76,0,8.32-1.61,10.67-4.82s3.53-7.35,3.53-12.43-1.19-9.35-3.57-12.47-5.92-4.68-10.63-4.68c-3.23,0-5.89.73-7.98,2.19-2.09,1.46-3.64,3.47-4.66,6.04-1.01,2.57-1.52,5.54-1.52,8.92,0,5.23,1.2,9.41,3.6,12.54,2.4,3.14,5.92,4.7,10.56,4.7h0Z"/>
    <path d="M606.63,65.84v-7.75h30.48v7.75h-30.48ZM614.88,107.89v-51.55c0-1.26.05-2.6.14-4.03s.36-2.84.81-4.24,1.19-2.68,2.24-3.85c1.26-1.38,2.64-2.37,4.15-2.95s3-.92,4.5-1.01c1.49-.09,2.87-.14,4.13-.14h6.27v7.93h-5.81c-2.27,0-3.97.56-5.09,1.68-1.12,1.12-1.68,2.71-1.68,4.77v53.39h-9.66ZM636.78,65.84v-7.75h30.48v7.75h-30.48ZM645.03,107.89v-51.55c0-1.26.05-2.6.14-4.03s.36-2.84.81-4.24,1.19-2.68,2.24-3.85c1.26-1.38,2.64-2.37,4.15-2.95s3-.92,4.5-1.01c1.49-.09,2.87-.14,4.13-.14h6.27v7.93h-5.81c-2.28,0-3.97.56-5.1,1.68-1.12,1.12-1.68,2.71-1.68,4.77v53.39h-9.65Z"/>
    <path d="M676.94,49.94v-9.36h9.64v9.36h-9.64ZM676.94,107.89v-49.8h9.64v49.8h-9.64Z"/>
    <path d="M721.71,109.28c-5.1,0-9.44-1.14-13-3.41-3.57-2.27-6.29-5.39-8.18-9.36s-2.85-8.47-2.88-13.51c.03-5.13,1.01-9.67,2.95-13.62,1.94-3.95,4.7-7.05,8.3-9.29s7.92-3.37,12.96-3.37c5.44,0,10.09,1.35,13.95,4.06,3.86,2.71,6.4,6.41,7.63,11.11l-9.59,2.77c-.95-2.8-2.51-4.97-4.68-6.52-2.17-1.55-4.65-2.33-7.45-2.33-3.17,0-5.76.75-7.79,2.24-2.03,1.49-3.54,3.53-4.52,6.11-.98,2.58-1.49,5.53-1.52,8.85.03,5.13,1.21,9.28,3.53,12.45s5.75,4.75,10.3,4.75c3.1,0,5.62-.71,7.54-2.14s3.39-3.48,4.4-6.16l9.78,2.3c-1.63,4.86-4.32,8.58-8.07,11.18s-8.3,3.9-13.65,3.9h-.01Z"/>
    <path d="M773.54,109.28c-4.95,0-9.29-1.08-13.03-3.25-3.74-2.17-6.64-5.19-8.71-9.08s-3.11-8.4-3.11-13.53c0-5.44,1.02-10.16,3.07-14.15,2.04-4,4.89-7.08,8.55-9.27,3.66-2.18,7.92-3.27,12.77-3.27s9.39,1.18,12.96,3.53,6.23,5.69,8,10.03c1.77,4.33,2.47,9.48,2.1,15.45h-9.64v-3.5c-.06-5.78-1.16-10.05-3.3-12.82s-5.39-4.15-9.75-4.15c-4.83,0-8.45,1.52-10.88,4.56s-3.64,7.44-3.64,13.19,1.21,9.71,3.64,12.7c2.43,3,5.93,4.5,10.51,4.5,3.01,0,5.62-.68,7.82-2.05s3.91-3.33,5.14-5.88l9.45,3c-1.94,4.46-4.87,7.91-8.81,10.35s-8.32,3.67-13.14,3.67v-.03ZM755.78,85.72v-7.52h35.55v7.52h-35.55Z"/>
  </g>
  <g class="st2">
    <g class="st1">
      <path d="M140,66.75c2.62,0,4.75-2.13,4.75-4.75v-12c0-9.24-7.51-16.75-16.75-16.75h-15.26c0,.09.03.18.03.27v18.09c0,1.93-1.56,3.49-3.49,3.5h-.01c-1.92,0-3.49-1.55-3.5-3.47l-.04-5.6v-12.51c0-.09.02-.18.03-.27H32c-9.24,0-16.75,7.51-16.75,16.75v12c0,2.62,2.13,4.75,4.75,4.75,7.31,0,13.25,5.94,13.25,13.25s-5.94,13.25-13.25,13.25c-2.62,0-4.75,2.13-4.75,4.75v12c0,9.24,7.51,16.75,16.75,16.75h73.75l-.03-4.13v-13.57c0-1.93,1.57-3.5,3.5-3.5s3.54,1.57,3.54,3.5v17.7h15.24c9.24,0,16.75-7.51,16.75-16.75v-12c0-2.62-2.13-4.75-4.75-4.75-7.31,0-13.25-5.94-13.25-13.25s5.94-13.25,13.25-13.25M112.77,89.05c0,1.93-1.56,3.49-3.48,3.5h-.02c-1.92,0-3.48-1.55-3.5-3.47l-.05-5.4v-12.08c0-1.93,1.57-3.5,3.5-3.5s3.55,1.57,3.55,3.5v17.45Z"/>
    </g>
  </g>
</svg>