<?xml version="1.0" encoding="UTF-8"?>
<svg id="Layer_1" xmlns="http://www.w3.org/2000/svg" xmlns:xlink="http://www.w3.org/1999/xlink" version="1.1" viewBox="0 0 800 160">
  <!-- Generator: Adobe Illustrator 30.3.0, SVG Export Plug-In . SVG Version: 2.1.3 Build 182)  -->
  <defs>
    <style>
      .st0 {
        fill: none;
      }

      .st1 {
        isolation: isolate;
      }

      .st2 {
        clip-path: url(#clippath-1);
      }

      .st3 {
        fill: #fff;
      }

      .st4 {
        clip-path: url(#clippath);
      }
    </style>
    <clipPath id="clippath">
      <rect class="st0" width="160" height="160"/>
    </clipPath>
    <clipPath id="clippath-1">
      <rect class="st0" width="160" height="160"/>
    </clipPath>
  </defs>
  <g class="st1">
    <g class="st1">
      <path class="st3" d="M192.22,109.27c-4.92,0-9.07-1.12-12.45-3.37-3.38-2.24-5.95-5.35-7.7-9.31-1.75-3.97-2.63-8.53-2.63-13.69s.89-9.81,2.67-13.74c1.78-3.93,4.37-6.99,7.77-9.18,3.4-2.18,7.51-3.27,12.33-3.27s9.11,1.11,12.5,3.34c3.38,2.23,5.94,5.31,7.68,9.25,1.74,3.93,2.61,8.47,2.61,13.6s-.88,9.86-2.63,13.81c-1.75,3.95-4.33,7.03-7.72,9.25-3.4,2.21-7.54,3.32-12.43,3.32ZM192.22,105.4c6.27,0,10.94-2.08,14.02-6.25,3.07-4.17,4.61-9.58,4.61-16.25s-1.54-12.21-4.63-16.25-7.75-6.06-13.99-6.06c-4.21,0-7.69.95-10.44,2.86-2.75,1.91-4.8,4.54-6.16,7.88-1.35,3.35-2.03,7.21-2.03,11.57,0,6.76,1.57,12.2,4.73,16.32,3.15,4.12,7.78,6.18,13.9,6.18Z"/>
      <path class="st3" d="M225.14,130.02V58.09h3.6v39.19h.28v32.74h-3.87ZM246.44,109.27c-4.4,0-8.13-1.17-11.2-3.5-3.07-2.34-5.42-5.49-7.03-9.48-1.61-3.98-2.42-8.45-2.42-13.39s.81-9.54,2.44-13.49c1.63-3.95,4.03-7.05,7.22-9.31,3.18-2.26,7.09-3.39,11.74-3.39s8.25,1.16,11.37,3.48c3.12,2.32,5.49,5.46,7.12,9.43,1.63,3.97,2.44,8.39,2.44,13.28s-.83,9.46-2.49,13.44c-1.66,3.98-4.1,7.13-7.31,9.45-3.21,2.32-7.17,3.48-11.87,3.48ZM246.44,105.4c3.84,0,7.06-.98,9.66-2.95,2.6-1.97,4.56-4.65,5.88-8.05,1.32-3.4,1.98-7.23,1.98-11.5s-.64-8.05-1.91-11.41c-1.28-3.37-3.2-6.02-5.79-7.98-2.58-1.95-5.86-2.93-9.82-2.93s-7.12.95-9.75,2.86c-2.63,1.91-4.61,4.54-5.95,7.91-1.34,3.37-2.01,7.22-2.01,11.55s.66,8.11,1.98,11.5c1.32,3.4,3.3,6.08,5.93,8.05,2.63,1.97,5.89,2.95,9.8,2.95Z"/>
    </g>
    <g class="st1">
      <path class="st3" d="M304.49,109.27c-4.7,0-8.75-1.06-12.15-3.18-3.4-2.12-6.02-5.15-7.86-9.08-1.84-3.93-2.77-8.61-2.77-14.02s.91-10.13,2.74-14.06c1.83-3.93,4.44-6.96,7.84-9.06,3.4-2.11,7.46-3.16,12.2-3.16s8.84,1.08,12.22,3.23c3.38,2.15,5.97,5.27,7.77,9.36,1.8,4.09,2.7,9.02,2.7,14.8h-4.15v-1.29c-.18-7.16-1.87-12.66-5.05-16.48-3.18-3.83-7.68-5.74-13.49-5.74s-10.48,1.96-13.74,5.88c-3.26,3.92-4.89,9.43-4.89,16.53s1.63,12.61,4.89,16.53c3.26,3.92,7.84,5.88,13.74,5.88,4.12,0,7.73-.97,10.84-2.9,3.1-1.94,5.58-4.72,7.42-8.35l3.23,1.84c-2.03,4.24-4.9,7.52-8.62,9.82-3.72,2.31-8.01,3.46-12.86,3.46ZM284.2,84.1v-3.87h40.58v3.87h-40.58Z"/>
    </g>
    <g class="st1">
      <path class="st3" d="M338.1,107.89v-49.8h3.6v10.14h.28v39.65h-3.87ZM375.08,107.89v-26.38c0-3.56-.36-6.65-1.08-9.24-.72-2.6-1.79-4.75-3.2-6.46-1.41-1.71-3.13-2.97-5.14-3.8-2.01-.83-4.31-1.24-6.89-1.24-3.04,0-5.63.53-7.77,1.59-2.14,1.06-3.87,2.51-5.19,4.36-1.32,1.84-2.29,3.96-2.9,6.36-.62,2.4-.92,4.93-.92,7.61l-3.6.09c0-5.69.94-10.27,2.81-13.76,1.87-3.49,4.36-6.03,7.45-7.63,3.09-1.6,6.46-2.4,10.12-2.4,2.52,0,4.83.35,6.94,1.06,2.1.71,3.98,1.73,5.63,3.07,1.64,1.34,3.04,2.97,4.17,4.91,1.14,1.94,2,4.14,2.58,6.62.58,2.47.88,5.19.88,8.14v27.11h-3.87Z"/>
      <path class="st3" d="M390.94,107.89V41.49h3.87v27.21h-.28v39.19h-3.6ZM412.24,109.27c-4.4,0-8.13-1.17-11.2-3.5-3.07-2.34-5.42-5.49-7.03-9.48-1.61-3.98-2.42-8.45-2.42-13.39s.81-9.54,2.44-13.49c1.63-3.95,4.03-7.05,7.22-9.31,3.18-2.26,7.09-3.39,11.74-3.39s8.25,1.16,11.37,3.48c3.12,2.32,5.49,5.46,7.12,9.43,1.63,3.97,2.44,8.39,2.44,13.28s-.83,9.46-2.49,13.44c-1.66,3.98-4.1,7.13-7.31,9.45-3.21,2.32-7.17,3.48-11.87,3.48ZM412.24,105.4c3.84,0,7.06-.98,9.66-2.95,2.6-1.97,4.56-4.65,5.88-8.05,1.32-3.4,1.98-7.23,1.98-11.5s-.64-8.05-1.91-11.41c-1.28-3.37-3.2-6.02-5.79-7.98-2.58-1.95-5.86-2.93-9.82-2.93s-7.12.95-9.75,2.86c-2.63,1.91-4.61,4.54-5.95,7.91-1.34,3.37-2.01,7.22-2.01,11.55s.66,8.11,1.98,11.5c1.32,3.4,3.3,6.08,5.92,8.05,2.63,1.97,5.89,2.95,9.8,2.95Z"/>
    </g>
    <g class="st1">
      <path class="st3" d="M470.89,109.27c-4.92,0-9.07-1.12-12.45-3.37-3.38-2.24-5.95-5.35-7.7-9.31s-2.63-8.53-2.63-13.69.89-9.81,2.67-13.74c1.78-3.93,4.37-6.99,7.77-9.18s7.51-3.27,12.33-3.27,9.11,1.11,12.5,3.34,5.94,5.31,7.68,9.25c1.74,3.93,2.61,8.47,2.61,13.6s-.88,9.86-2.63,13.81c-1.75,3.95-4.33,7.03-7.72,9.25s-7.54,3.32-12.43,3.32ZM470.89,105.4c6.27,0,10.94-2.08,14.02-6.25,3.07-4.17,4.61-9.58,4.61-16.25s-1.54-12.21-4.63-16.25c-3.09-4.04-7.75-6.06-13.99-6.06-4.21,0-7.69.95-10.44,2.86-2.75,1.91-4.8,4.54-6.16,7.88-1.35,3.35-2.03,7.21-2.03,11.57,0,6.76,1.58,12.2,4.73,16.32,3.15,4.12,7.78,6.18,13.9,6.18Z"/>
    </g>
    <g class="st1">
      <path class="st3" d="M500.16,107.89l20.29-25.18-19.83-24.62h4.8l17.34,21.76,17.25-21.76h4.8l-19.83,24.62,20.29,25.18h-4.89l-17.61-22.32-17.71,22.32h-4.89Z"/>
    </g>
    <g class="st1">
      <path class="st3" d="M574.13,109.27c-4.92,0-9.07-1.12-12.45-3.37-3.38-2.24-5.95-5.35-7.7-9.31-1.75-3.97-2.63-8.53-2.63-13.69s.89-9.81,2.67-13.74c1.78-3.93,4.37-6.99,7.77-9.18,3.4-2.18,7.51-3.27,12.33-3.27s9.11,1.11,12.5,3.34c3.38,2.23,5.94,5.31,7.68,9.25s2.61,8.47,2.61,13.6-.88,9.86-2.63,13.81c-1.75,3.95-4.33,7.03-7.72,9.25-3.4,2.21-7.54,3.32-12.43,3.32ZM574.13,105.4c6.27,0,10.94-2.08,14.02-6.25,3.07-4.17,4.61-9.58,4.61-16.25s-1.54-12.21-4.63-16.25c-3.09-4.04-7.75-6.06-13.99-6.06-4.21,0-7.69.95-10.44,2.86-2.75,1.91-4.8,4.54-6.16,7.88-1.35,3.35-2.03,7.21-2.03,11.57,0,6.76,1.57,12.2,4.73,16.32,3.15,4.12,7.79,6.18,13.9,6.18Z"/>
    </g>
    <g class="st1">
      <path class="st3" d="M606.63,61.96v-3.87h27.57v3.87h-27.57ZM615.66,107.89v-55.42c0-1.29.08-2.48.25-3.57.17-1.09.47-2.1.9-3.02.43-.92,1.03-1.8,1.8-2.63.74-.77,1.56-1.38,2.47-1.84.91-.46,1.91-.79,3.02-.99,1.11-.2,2.32-.3,3.64-.3h6.46v3.5h-5.99c-2.89,0-5.06.69-6.5,2.08-1.45,1.38-2.17,3.77-2.17,7.15v55.06h-3.87ZM633.28,61.96v-3.87h27.57v3.87h-27.57ZM642.32,107.89v-55.42c0-1.29.08-2.48.25-3.57.17-1.09.47-2.1.9-3.02.43-.92,1.03-1.8,1.8-2.63.74-.77,1.56-1.38,2.47-1.84.91-.46,1.91-.79,3.02-.99,1.11-.2,2.32-.3,3.64-.3h6.46v3.5h-6c-2.89,0-5.06.69-6.5,2.08-1.45,1.38-2.17,3.77-2.17,7.15v55.06h-3.87Z"/>
    </g>
    <g class="st1">
      <path class="st3" d="M676.94,47.39v-5.9h3.87v5.9h-3.87ZM676.94,107.89v-49.8h3.87v49.8h-3.87Z"/>
    </g>
    <g class="st1">
      <path class="st3" d="M720.43,109.27c-4.95,0-9.1-1.11-12.45-3.32s-5.89-5.29-7.61-9.25c-1.72-3.95-2.63-8.52-2.72-13.72.09-5.32,1.01-9.94,2.74-13.88,1.74-3.93,4.28-6.99,7.63-9.15s7.49-3.25,12.4-3.25c4.61,0,8.72,1.1,12.33,3.3,3.61,2.2,6.17,5.22,7.68,9.06l-3.69,1.57c-1.38-3.2-3.51-5.67-6.39-7.42-2.88-1.75-6.19-2.63-9.94-2.63-4.18,0-7.64.95-10.38,2.84-2.74,1.89-4.78,4.52-6.13,7.88-1.35,3.37-2.06,7.26-2.12,11.69.09,6.76,1.69,12.19,4.8,16.28,3.1,4.09,7.71,6.13,13.83,6.13,3.66,0,6.9-.84,9.73-2.54,2.83-1.69,5-4.17,6.5-7.42l3.78,1.66c-2.06,4-4.78,7.02-8.16,9.08s-7.33,3.09-11.85,3.09Z"/>
    </g>
    <g class="st1">
      <path class="st3" d="M771.47,109.27c-4.7,0-8.75-1.06-12.15-3.18-3.4-2.12-6.02-5.15-7.86-9.08-1.84-3.93-2.77-8.61-2.77-14.02s.91-10.13,2.74-14.06c1.83-3.93,4.44-6.96,7.84-9.06,3.4-2.11,7.46-3.16,12.2-3.16s8.84,1.08,12.22,3.23c3.38,2.15,5.97,5.27,7.77,9.36s2.7,9.02,2.7,14.8h-4.15v-1.29c-.19-7.16-1.87-12.66-5.05-16.48-3.18-3.83-7.68-5.74-13.49-5.74s-10.48,1.96-13.74,5.88c-3.26,3.92-4.89,9.43-4.89,16.53s1.63,12.61,4.89,16.53c3.26,3.92,7.84,5.88,13.74,5.88,4.12,0,7.73-.97,10.84-2.9s5.58-4.72,7.42-8.35l3.23,1.84c-2.03,4.24-4.9,7.52-8.62,9.82-3.72,2.31-8.01,3.46-12.87,3.46ZM751.18,84.1v-3.87h40.58v3.87h-40.58Z"/>
    </g>
  </g>
  <g class="st4">
    <g class="st2">
      <path class="st3" d="M140,66.75c2.62,0,4.75-2.13,4.75-4.75v-12c0-9.24-7.51-16.75-16.75-16.75h-15.26c0,.09.03.18.03.27v18.09c0,1.93-1.56,3.49-3.49,3.5h-.01c-1.92,0-3.49-1.55-3.5-3.47l-.04-5.6v-12.51c0-.09.02-.18.03-.27H32c-9.24,0-16.75,7.51-16.75,16.75v12c0,2.62,2.13,4.75,4.75,4.75,7.31,0,13.25,5.94,13.25,13.25s-5.94,13.25-13.25,13.25c-2.62,0-4.75,2.13-4.75,4.75v12c0,9.24,7.51,16.75,16.75,16.75h73.75l-.03-4.13v-13.57c0-1.93,1.57-3.5,3.5-3.5s3.54,1.57,3.54,3.5v17.7h15.24c9.24,0,16.75-7.51,16.75-16.75v-12c0-2.62-2.13-4.75-4.75-4.75-7.31,0-13.25-5.94-13.25-13.25s5.94-13.25,13.25-13.25M112.77,89.05c0,1.93-1.56,3.49-3.48,3.5h-.02c-1.92,0-3.48-1.55-3.5-3.47l-.05-5.4v-12.08c0-1.93,1.57-3.5,3.5-3.5s3.55,1.57,3.55,3.5v17.45Z"/>
    </g>
  </g>
</svg>